<svg width="29" height="28" viewBox="0 0 29 28" fill="none" xmlns="http://www.w3.org/2000/svg">
<path d="M28.4586 15.2167C28.1834 13.2273 27.1742 11.1262 25.6168 9.30062C23.6027 6.93979 20.9994 5.41851 18.6166 5.19976C18.4826 4.88153 18.3075 4.58168 18.0956 4.30761L16.4221 2.14503C15.429 0.861633 13.7209 0.25554 11.6121 0.438128C9.58072 0.614107 7.40126 1.50675 5.47515 2.95169C3.54905 4.39662 2.09646 6.22863 1.385 8.11028C0.646411 10.0636 0.786575 11.8461 1.77968 13.1295L2.74164 14.3727C2.55019 14.6308 2.39114 14.9108 2.26794 15.2066L1.22246 17.723C0.601975 19.2163 0.936877 20.9735 2.16542 22.6709C3.34886 24.306 5.23487 25.7036 7.47602 26.6064C9.11148 27.2651 10.7994 27.6054 12.3728 27.6054C12.94 27.6069 13.5064 27.5597 14.0654 27.4642C16.1499 27.1013 17.6397 26.079 18.2601 24.5857L19.2426 22.2209C19.4175 22.2877 19.5927 22.3488 19.7682 22.4041C20.4626 22.6304 21.1883 22.7497 21.9197 22.7578C23.0539 22.7578 24.0551 22.4276 24.8414 21.7772L26.9557 20.0286C28.2104 18.9909 28.7442 17.282 28.4586 15.2167ZM15.3473 18.3858L16.7563 17.2205C17.3758 17.9045 18.0646 18.5246 18.8119 19.0711L17.4232 20.2196C16.6648 19.6854 15.9686 19.0704 15.3473 18.3858ZM14.7556 17.6917C14.5636 17.4502 14.3813 17.2034 14.2086 16.9513C14.1885 16.9171 14.1675 16.8834 14.1451 16.8503L14.141 16.853C13.8008 16.3485 13.4993 15.8198 13.2391 15.2711C13.6338 15.0312 14.0208 14.7693 14.4001 14.4854C14.499 14.4112 14.5965 14.336 14.6927 14.2596C15.1047 15.062 15.5978 15.8214 16.1644 16.5265L14.7556 17.6917ZM13.4662 18.2005C13.3738 18.4229 13.1954 18.6001 12.9703 18.693C12.7453 18.786 12.4919 18.7871 12.2659 18.6961L10.1361 17.8383L10.7055 16.4679C11.3007 16.2628 11.8794 16.0137 12.4367 15.723C12.7231 16.3198 13.0556 16.894 13.4314 17.4406C13.4928 17.5572 13.5277 17.6855 13.5338 17.8168C13.5397 17.948 13.5167 18.0789 13.4662 18.2005ZM12.4176 20.0232C12.488 20.1885 12.5071 20.3706 12.4723 20.5466C12.4376 20.7225 12.3507 20.8844 12.2225 21.0116C12.0944 21.139 11.9307 21.226 11.7524 21.2617C11.574 21.2974 11.3888 21.2803 11.2204 21.2124L9.09064 20.3546L9.78764 18.6771L11.9173 19.5349C12.0294 19.5797 12.1313 19.6458 12.2172 19.7297C12.303 19.8135 12.3712 19.9132 12.4176 20.0232ZM5.86808 14.8684C5.91727 14.8684 5.96696 14.8676 6.0167 14.8667L6.97024 16.099C5.757 15.9893 4.79009 15.5246 4.18524 14.7429L4.10542 14.6398C4.67937 14.7961 5.27261 14.873 5.86808 14.8684ZM8.18251 16.0963C8.16439 16.0978 8.14652 16.099 8.12846 16.1004L7.1041 14.7766C7.76644 14.679 8.41775 14.5192 9.04918 14.2995L10.134 15.7014C9.5001 15.9029 8.84572 16.0354 8.18251 16.0963ZM12.3562 12.5917L13.4714 14.033C12.7128 14.5668 11.8965 15.0165 11.0377 15.3739L9.93856 13.9536C10.7894 13.5817 11.5994 13.1254 12.3562 12.5917ZM14.2035 13.4838L13.0883 12.0426C13.8117 11.4658 14.4735 10.8179 15.0634 10.109L16.1626 11.5293C15.5846 12.2498 14.9276 12.9053 14.2035 13.4838ZM16.723 10.7583L15.6383 9.35648C16.021 8.81539 16.3503 8.2395 16.6218 7.63669L17.6461 8.96043C17.6398 8.97719 17.6341 8.99386 17.6277 9.01065C17.392 9.62408 17.0886 10.2101 16.723 10.7583ZM17.9521 7.86059L16.9987 6.62844C17.1875 6.02094 17.2835 5.38916 17.2838 4.75386L17.3634 4.85683C17.9683 5.63849 18.1668 6.67978 17.9521 7.86059ZM2.24755 8.42647C2.89912 6.7033 4.24346 5.01499 6.03295 3.67255C7.82244 2.33011 9.83244 1.50205 11.6927 1.34087C11.9114 1.32192 12.1245 1.31248 12.3318 1.31255C13.8143 1.31255 14.9927 1.79308 15.69 2.69423C16.4849 3.72143 16.5787 5.19664 15.9543 6.84808C15.3027 8.57125 13.9583 10.2596 12.1689 11.602C10.3794 12.9445 8.36936 13.7725 6.50912 13.9337C4.72646 14.0881 3.30731 13.6077 2.51231 12.581L2.51178 12.5803C1.71697 11.5531 1.62312 10.0779 2.24755 8.42647ZM3.45312 15.2921C4.3303 16.4258 5.76519 17.0309 7.54147 17.0309C7.77615 17.0309 8.01673 17.0203 8.2632 16.999C8.70555 16.9597 9.14456 16.89 9.57703 16.7904L8.23876 20.0114L7.38689 19.6683L7.03837 20.5071L7.89024 20.8502L7.54176 21.689L8.39363 22.0321L8.74215 21.1934L9.59403 21.5365L9.24551 22.3753L10.0974 22.7184L10.4459 21.8796L10.8718 22.0512C11.2088 22.1869 11.5791 22.2212 11.9359 22.1498C12.2926 22.0783 12.6199 21.9042 12.8762 21.6496C13.1325 21.3951 13.3064 21.0713 13.3758 20.7194C13.4453 20.3676 13.4072 20.0033 13.2664 19.6727C13.2512 19.637 13.2346 19.6021 13.2172 19.5677C13.4576 19.486 13.678 19.3559 13.8646 19.1859C14.0512 19.0159 14.1999 18.8096 14.3013 18.58C14.3144 18.5955 14.3272 18.6112 14.3404 18.6268C15.5298 20.0209 16.935 21.1321 18.3979 21.8516C17.8682 22.9792 16.6506 23.7595 14.9506 24.0554C13.1117 24.3756 10.9522 24.09 8.87006 23.2513C6.78779 22.4125 5.04423 21.126 3.96045 19.6286C2.92176 18.1935 2.62321 16.745 3.11982 15.5498C3.17978 15.4066 3.25076 15.2682 3.33213 15.1357L3.45312 15.2921ZM8.09836 23.9118L7.40158 25.5888C6.54977 25.2153 5.74243 24.7504 4.99426 24.2024L5.6809 22.5498C6.43762 23.0835 7.24762 23.5399 8.09836 23.9118ZM8.95056 24.2542C9.82201 24.5762 10.7245 24.8099 11.6441 24.9517L10.9574 26.6044C10.0337 26.4789 9.12689 26.2534 8.25346 25.9319L8.95056 24.2542ZM2.07433 18.0661L2.12411 17.9463C2.29193 18.5597 2.55137 19.1452 2.89394 19.6836L2.29827 21.1173C1.7795 20.0319 1.69644 18.9756 2.07433 18.0661ZM2.91496 22.1449C2.90439 22.1303 2.89437 22.1157 2.88395 22.1011L3.5239 20.5609C3.94502 21.0736 4.41494 21.5455 4.92729 21.9701L4.24958 23.6013C3.75192 23.1654 3.30436 22.677 2.91496 22.1449ZM11.9165 26.6895L12.5944 25.058C12.8717 25.0782 13.1468 25.089 13.4182 25.089C13.8127 25.0893 14.2067 25.0668 14.5984 25.0215L13.9584 26.5619C13.9406 26.5651 13.9231 26.5687 13.9051 26.5718C13.2486 26.6826 12.5817 26.7221 11.9165 26.6895ZM15.0765 26.2643L15.6722 24.8307C16.2998 24.683 16.9016 24.4445 17.458 24.1227L17.4082 24.2425C17.0303 25.1521 16.2192 25.8482 15.0765 26.2643ZM18.232 20.7341L19.6026 19.6006C20.1697 19.9513 20.7695 20.2478 21.394 20.4861L20.0998 21.5564C20.0825 21.5511 20.0653 21.5462 20.048 21.5408C19.4145 21.3381 18.8055 21.0677 18.232 20.7341ZM24.2494 21.0834C23.4852 21.7154 22.4382 21.9601 21.2301 21.8051L22.4347 20.8088C22.9578 20.9384 23.4947 21.0057 24.034 21.0092C24.141 21.0092 24.2464 21.0053 24.3509 20.9994L24.2494 21.0834ZM26.3637 19.3347C25.3594 20.1653 23.8673 20.3276 22.1623 19.7921C20.3832 19.2332 18.6065 17.9913 17.1595 16.2952C16.467 15.4893 15.8806 14.6005 15.414 13.65C16.8358 12.3641 17.9097 10.8621 18.4903 9.32685C18.9213 8.18692 19.0525 7.10535 18.8901 6.14701C20.9192 6.46193 23.1814 7.85489 24.912 9.88352C26.359 11.5796 27.2946 13.5171 27.5465 15.339C27.788 17.0851 27.368 18.5041 26.3637 19.3347Z" fill="#D7B27B"/>
</svg>
